<svg width="25" height="26" viewBox="0 0 25 26" fill="none" xmlns="http://www.w3.org/2000/svg">
<g clip-path="url(#clip0_4442_1764)">
<path fill-rule="evenodd" clip-rule="evenodd" d="M19.2759 25.2618C22.0506 25.2618 24.2999 23.0125 24.2999 20.2378C24.2999 17.4632 22.0506 15.2139 19.2759 15.2139C16.5013 15.2139 14.252 17.4632 14.252 20.2378C14.252 23.0125 16.5013 25.2618 19.2759 25.2618ZM20.2283 21.1902H22.2388V19.2855H20.2283V17.275H18.3236V19.2855H16.3131V21.1902H18.3236V23.2007H20.2283V21.1902Z" fill="white"/>
<path fill-rule="evenodd" clip-rule="evenodd" d="M13.2972 3.95345L17.5033 10.3648H22.1031C22.6313 10.3648 23.0634 10.8046 23.0634 11.3422L23.0346 11.6061L22.3648 14.0938C21.4152 13.6076 20.339 13.3332 19.1988 13.3332C15.357 13.3332 12.2426 16.4477 12.2426 20.2895C12.2426 20.9132 12.3247 21.5178 12.4786 22.093H6.25832C5.37485 22.093 4.63543 21.487 4.41456 20.666L1.97542 11.6061C1.94661 11.5181 1.93701 11.4301 1.93701 11.3422C1.93701 10.8046 2.36914 10.3648 2.8973 10.3648H7.49709L11.7032 3.96323C11.8856 3.6798 12.1929 3.54297 12.5002 3.54297C12.8075 3.54297 13.1148 3.6798 13.2972 3.95345ZM12.5002 6.06452L9.61933 10.3648H15.3811L12.5002 6.06452Z" fill="white"/>
</g>
<defs>
<clipPath id="clip0_4442_1764">
<rect width="24.7333" height="24.7333" fill="white" transform="translate(0.133301 0.966797)"/>
</clipPath>
</defs>
</svg>
